HIERARCHY
ROOT Hips
{
    OFFSET 0.000000 0.000000 0.000000
    CHANNELS 6 Xposition Yposition Zposition Zrotation Xrotation Yrotation
    JOINT Spine
    {
        OFFSET -0.000000 6.845686 0.000000
        CHANNELS 3 Zrotation Xrotation Yrotation
        JOINT Spine1
        {
            OFFSET -0.000000 17.766665 0.000000
            CHANNELS 3 Zrotation Xrotation Yrotation
            JOINT Neck
            {
                OFFSET -0.000000 17.693701 1.608518
                CHANNELS 3 Zrotation Xrotation Yrotation
                JOINT Head
                {
                    OFFSET -0.000000 11.687756 -1.669679
                    CHANNELS 3 Zrotation Xrotation Yrotation
                    End Site
                    {
                        OFFSET -0.000000 20.870993 0.000000
                    }
                }
            }
            JOINT LeftShoulder
            {
                OFFSET 3.337134 14.750981 0.036037
                CHANNELS 3 Zrotation Xrotation Yrotation
                JOINT LeftArm
                {
                    OFFSET 13.437092 0.000000 0.000000
                    CHANNELS 3 Zrotation Xrotation Yrotation
                    JOINT LeftForeArm
                    {
                        OFFSET 22.625980 0.000000 0.000000
                        CHANNELS 3 Zrotation Xrotation Yrotation
                        JOINT LeftHand
                        {
                            OFFSET 20.313534 0.000000 0.000000
                            CHANNELS 3 Zrotation Xrotation Yrotation
                            End Site
                            {
                                OFFSET 12.522596 0.000000 0.000000
                            }
                        }
                    }
                }
            }
            JOINT RightShoulder
            {
                OFFSET -3.327397 14.750981 0.036037
                CHANNELS 3 Zrotation Xrotation Yrotation
                JOINT RightArm
                {
                    OFFSET -13.437092 0.000000 0.000000
                    CHANNELS 3 Zrotation Xrotation Yrotation
                    JOINT RightForeArm
                    {
                        OFFSET -22.625980 0.000000 0.000000
                        CHANNELS 3 Zrotation Xrotation Yrotation
                        JOINT RightHand
                        {
                            OFFSET -20.313534 0.000000 0.000000
                            CHANNELS 3 Zrotation Xrotation Yrotation
                            End Site
                            {
                                OFFSET -12.522596 0.000000 0.000000
                            }
                        }
                    }
                }
            }
        }
    }
    JOINT LeftUpLeg
    {
        OFFSET 8.348397 0.000000 0.000000
        CHANNELS 3 Zrotation Xrotation Yrotation
        JOINT LeftLeg
        {
            OFFSET -0.000000 -37.145218 0.000000
            CHANNELS 3 Zrotation Xrotation Yrotation
            JOINT LeftFoot
            {
                OFFSET -0.000000 -30.148611 0.000000
                CHANNELS 3 Zrotation Xrotation Yrotation
                JOINT LeftToeBase
                {
                    OFFSET -0.000000 -5.426458 12.522596
                    CHANNELS 3 Zrotation Xrotation Yrotation
                    End Site
                    {
                        OFFSET -0.000000 0.000000 3.339359
                    }
                }
            }
        }
    }
    JOINT RightUpLeg
    {
        OFFSET -8.348397 0.000000 0.000000
        CHANNELS 3 Zrotation Xrotation Yrotation
        JOINT RightLeg
        {
            OFFSET -0.000000 -37.145218 0.000000
            CHANNELS 3 Zrotation Xrotation Yrotation
            JOINT RightFoot
            {
                OFFSET -0.000000 -30.148611 0.000000
                CHANNELS 3 Zrotation Xrotation Yrotation
                JOINT RightToeBase
                {
                    OFFSET -0.000000 -5.426458 12.522596
                    CHANNELS 3 Zrotation Xrotation Yrotation
                    End Site
                    {
                        OFFSET -0.000000 0.000000 3.339359
                    }
                }
            }
        }
    }
}
MOTION
Frames:    11
Frame Time:    0.040000
2.262257    76.503983    -15.663353    1.221798    12.826065    10.210162    -2.812001    -14.526239    -5.135445    -2.720059    -1.531026    -4.813289    -4.120431    -16.650478    -2.172409    6.849787    34.368744    -2.241444    11.335277    1.947033    -2.112427    -74.720612    30.118582    -4.640573    -25.065025    -32.080803    -88.895111    -69.870979    -41.936806    -19.367512    -15.387125    2.499624    -6.941786    76.927849    36.969524    11.262888    31.216679    -40.553497    80.164207    91.191376    -35.502514    32.548195    -5.852697    -32.052700    -18.098040    -4.059279    18.460087    6.461189    12.168800    16.225960    28.185188    0.000000    0.000000    0.000000    -1.497428    -3.108088    -8.131813    11.676619    19.201599    -4.207294    -6.952004    -19.164169    -31.655087    0.000000    0.000000    0.000000    
1.456590    76.204124    -17.123240    0.818050    12.604003    10.448531    -2.557499    -14.201671    -5.151182    -2.795447    -1.562047    -4.870596    -4.441963    -16.695459    -2.447847    7.376253    35.197285    -2.586955    10.920825    2.346686    -1.864366    -72.863831    28.918413    -5.185753    -15.584500    -27.934853    -76.653145    -69.726463    -33.215714    -9.198534    -15.114127    2.975107    -7.132946    77.183922    38.120640    10.399173    18.870859    -39.075596    65.335899    98.208710    -32.566475    17.325480    -5.323056    -33.900822    -18.263844    -4.281071    19.742384    6.804729    12.319935    16.909704    28.522738    0.000000    0.000000    0.000000    -0.149834    -3.278572    -7.875925    11.063543    17.625700    -4.019549    -10.045403    -19.385803    -31.984058    0.000000    0.000000    0.000000    
0.605459    75.908295    -18.668520    0.250550    12.266582    10.746012    -2.082455    -13.716263    -5.176034    -3.165843    -1.482019    -4.966430    -4.197703    -16.643738    -2.491844    7.493721    35.240356    -2.732089    11.229617    2.205294    -1.923873    -69.614983    28.816240    -7.121201    -6.436737    -20.771170    -65.888275    -65.386871    -25.361322    0.972566    -14.776935    2.943728    -7.209644    76.019958    38.074787    10.618822    6.445476    -31.692335    52.925789    92.085930    -30.565590    4.522479    -4.507322    -35.482140    -18.378828    -4.459255    20.466745    6.902939    12.290917    17.876566    28.715775    0.000000    0.000000    0.000000    1.228563    -3.600300    -7.124606    10.785483    16.408556    -2.549425    -13.356932    -19.189762    -33.801735    0.000000    0.000000    0.000000    
-0.218817    75.644241    -20.288914    -0.259260    12.045952    10.745158    -1.689212    -13.000886    -5.092012    -3.406233    -1.863753    -4.954935    -3.883816    -16.502352    -2.420754    7.504046    35.152821    -2.750687    11.837415    1.930876    -2.472484    -64.861382    28.668785    -9.622502    1.688382    -11.349114    -58.820904    -62.254093    -18.620253    13.824346    -14.623259    2.687340    -7.193620    73.244957    36.547916    11.827118    1.955806    -26.895559    48.358448    90.118370    -28.216253    -0.610503    -3.559981    -36.864395    -18.057209    -4.334570    20.612038    6.523693    11.764338    19.103306    28.691469    0.000000    0.000000    0.000000    2.407558    -4.301216    -5.806518    10.784220    15.427726    -1.439763    -16.105577    -18.681761    -35.679451    0.000000    0.000000    0.000000    
-0.876208    75.465363    -21.898327    -0.794569    11.966844    10.763556    -1.217152    -12.373590    -5.072007    -3.413955    -2.465589    -5.013484    -3.807647    -16.264198    -2.275429    7.400791    35.126900    -2.608540    12.307405    1.513919    -3.366452    -59.445065    27.818329    -11.663951    5.498575    -3.276736    -55.076962    -59.473961    -13.569892    22.828241    -14.762634    2.456443    -7.008714    68.834793    35.519993    13.610031    -3.343402    -18.106556    42.132111    81.896431    -28.465694    -14.343987    -2.851423    -38.106369    -18.201641    -4.152704    20.602970    6.685766    12.026871    19.878195    28.712717    0.000000    0.000000    0.000000    3.325915    -5.317147    -5.038795    10.790651    14.686977    -1.335328    -17.864990    -18.122097    -36.047348    0.000000    0.000000    0.000000    
-1.336617    75.412659    -23.412470    -1.249595    11.890783    10.808786    -0.567839    -12.111120    -5.165742    -3.659874    -2.563458    -5.187362    -3.599396    -16.324905    -2.051359    7.099498    35.237350    -2.386910    12.742953    1.053480    -4.001152    -53.393181    26.264505    -13.751908    5.808062    -0.215715    -51.179180    -56.819061    -11.533496    25.647715    -14.835957    1.897600    -6.402243    63.191383    33.636143    15.474464    -6.519551    -11.223934    38.189472    75.842674    -27.522589    -24.545452    -2.372360    -39.118465    -18.435961    -4.155466    20.810005    7.398961    13.000059    19.762495    28.110559    0.000000    0.000000    0.000000    3.810364    -6.426612    -5.089735    10.948994    14.505118    -0.960609    -17.488752    -18.211201    -36.117313    0.000000    0.000000    0.000000    
-1.709919    75.461159    -24.776018    -1.452528    11.745983    10.835446    -0.332959    -11.773243    -5.182033    -3.595692    -2.639091    -5.230516    -3.594251    -16.434425    -2.004786    6.878777    35.212948    -2.294112    13.142092    0.484441    -4.724956    -47.245705    24.081345    -15.663470    5.284712    1.400831    -47.075825    -54.428200    -9.767344    25.729275    -15.256247    1.114532    -5.357496    57.799362    31.402794    16.075308    -8.377092    -8.102789    31.391829    72.138222    -24.304346    -25.844755    -2.152024    -39.932354    -17.934160    -4.099571    21.398027    7.976353    14.732385    19.217308    27.633572    0.000000    0.000000    0.000000    3.985184    -7.410168    -5.197174    11.173044    14.912970    1.863787    -17.513966    -17.929199    -38.809597    0.000000    0.000000    0.000000    
-2.022114    75.556778    -25.975742    -1.401813    11.419944    10.966968    -0.502410    -11.275415    -5.181085    -3.419831    -2.705498    -5.212232    -3.565403    -16.410982    -2.083530    6.757009    34.896008    -2.341066    13.671963    -0.272079    -5.455407    -41.452866    20.363867    -17.310934    6.921851    4.937913    -44.115307    -52.861073    -4.917972    25.020998    -15.911416    0.487293    -4.233980    52.498619    28.836926    16.019707    -9.533811    -5.576781    26.282412    69.412155    -21.790621    -26.666626    -2.368625    -40.579304    -17.177553    -4.160979    23.221680    8.211207    15.765355    18.599033    27.951984    0.000000    0.000000    0.000000    3.964428    -7.977454    -5.057115    11.376452    15.023958    3.317819    -18.418772    -17.220757    -40.482449    0.000000    0.000000    0.000000    
-2.210854    75.667175    -26.961485    -1.232276    10.968737    11.199377    -0.479866    -10.827002    -5.129302    -3.673833    -2.835573    -5.174766    -3.640682    -16.227140    -2.263417    6.925693    34.753952    -2.532591    14.427769    -0.937067    -6.086410    -36.404465    16.817698    -18.515871    12.902535    8.340967    -43.118370    -52.246490    1.390486    24.257847    -16.368320    0.011537    -3.604763    46.969765    24.100723    16.478230    -8.935185    0.558504    21.707314    58.607780    -14.742338    -30.086510    -2.927993    -40.926407    -17.172125    -4.540261    26.570175    8.323231    15.207546    17.346607    29.293024    0.000000    0.000000    0.000000    3.746879    -8.079580    -5.230978    11.595291    14.713721    2.672937    -18.023287    -17.343647    -40.061565    0.000000    0.000000    0.000000    
-2.294013    75.794220    -27.742201    -1.075480    10.629173    11.328492    -0.310447    -10.599936    -4.987307    -3.975113    -3.142600    -5.067569    -3.793995    -15.927327    -2.430293    6.942049    34.931328    -2.687422    15.025599    -1.759961    -6.433382    -31.539879    16.271551    -19.513622    21.466080    8.372602    -42.618404    -51.782944    5.019077    24.009518    -16.735243    -0.485973    -3.469090    41.437561    19.254278    17.377474    -8.183372    5.017164    18.297651    51.150547    -9.258711    -31.653996    -3.497874    -40.978691    -17.836378    -5.157405    30.604147    8.809013    13.709775    15.446692    31.197176    0.000000    0.000000    0.000000    3.524495    -8.031093    -5.680113    11.624766    14.295161    2.191372    -17.804474    -17.428892    -39.347347    0.000000    0.000000    0.000000    
-2.361974    75.921173    -28.342999    -0.926942    10.421653    11.134912    -0.395040    -10.621466    -4.822881    -3.945595    -3.499125    -4.906681    -3.571095    -15.562618    -2.381789    6.431663    35.187271    -2.637651    16.010559    -2.552068    -6.916810    -28.039408    17.237465    -19.626686    30.407904    4.928524    -40.794941    -50.375946    5.416656    23.245211    -17.392624    -0.949481    -2.815484    36.880749    15.366499    17.518795    -5.861448    9.085885    14.075125    37.911457    -1.037897    -31.186388    -3.685914    -40.704079    -18.443872    -6.041038    34.745651    9.734355    11.956153    13.179658    33.518890    0.000000    0.000000    0.000000    3.407106    -7.935051    -5.567208    11.600983    13.680543    1.375499    -17.337984    -17.600994    -38.512703    0.000000    0.000000    0.000000    
